<?xml version="1.0" standalone="no"?>
<!DOCTYPE svg PUBLIC "-//W3C//DTD SVG 1.1//EN" "http://www.w3.org/Graphics/SVG/1.1/DTD/svg11.dtd" >
<svg xmlns="http://www.w3.org/2000/svg" xmlns:xlink="http://www.w3.org/1999/xlink" version="1.1">
<metadata></metadata>
<defs>
<font id="back_to_the_future_2002Rg" horiz-adv-x="1139" >
<font-face units-per-em="2048" ascent="1638" descent="-410" />
<missing-glyph horiz-adv-x="600" />
<glyph horiz-adv-x="0" />
<glyph unicode="&#xd;" horiz-adv-x="569" />
<glyph unicode=" "  horiz-adv-x="600" />
<glyph unicode="&#x09;" horiz-adv-x="600" />
<glyph unicode="&#xa0;" horiz-adv-x="600" />
<glyph unicode="!" horiz-adv-x="754" d="M-4 1819l114 7h-54h426q96 -212 143 -345t100.5 -307.5t83.5 -357t45 -303.5l-449 -1q-42 206 -73 369t-84 322.5t-121.5 323t-130.5 292.5zM410 326l17 -331h443l-19 351l-440 2z" />
<glyph unicode="&#x22;" horiz-adv-x="1174" d="M74 1798l199 -1l121 -1q127 -248 202 -600l-277 2q-79 220 -126 334t-119 266zM550 1796l170 -1l148 -1q96 -248 158 -600l-261 2q-59 220 -100 326.5t-115 273.5z" />
<glyph unicode="#" horiz-adv-x="1952" d="M124 1378h311q-126 276 -225 428h450q92 -182 202 -412h148q-120 239 -186 404h404q61 -106 202 -397h304q76 -220 129 -349l-303 -1q48 -126 70 -217l280 -1q60 -184 84 -334l-272 1q38 -168 49 -251.5t27 -250.5h-411q-30 243 -57 368l-26 126h-152 q30 -137 41.5 -197.5t23 -155.5t19.5 -141h-403q-30 205 -53 315t-46 194h-341q-31 152 -76 319h334l-69 182l-10 51h-319q-69 160 -129 319zM1012 1066q25 -83 70 -235l150 -7q-50 136 -86 242h-134z" />
<glyph unicode="$" horiz-adv-x="1078" d="M38 879q32 230 41 320t17 90l647 534h378q-16 -127 -52 -345.5t-85 -406.5t-96.5 -384t-206.5 -682l-380 -1q98 290 133.5 433.5t98 335.5t172.5 656z" />
<glyph unicode="%" horiz-adv-x="1511" d="M31.5 1750.5q2.5 -17.5 22.5 -84t27.5 -108t9.5 -206.5q-1 -4 4.5 -19t25.5 -27t68.5 -12t189 -1t172 0t54 12.5t33.5 27t10.5 49.5t-5 79.5t-18 109.5t-34.5 123.5t-53 77t-90.5 18.5t-177.5 1t-161 -1t-61 -11.5t-16.5 -28zM233 1666q-2 9 4 14.5t20.5 6t56 0.5 t62 -0.5t33 -9.5t22.5 -40.5t18.5 -65t12.5 -57.5t6 -42t-1 -26t-10 -14.5t-18 -7t-60 0t-66 0.5t-24.5 6.5t-10 14.5t-3.5 10q-4 52 -6.5 69.5t-7.5 39.5t-15.5 57t-12.5 44zM312 3l794 1792h227l-796 -1792h-225zM992.5 452.5q2.5 -17.5 22.5 -84t27.5 -108t9.5 -206.5 q-1 -4 4.5 -19t25.5 -27t68.5 -12t189 -1t172 0t54 12.5t33.5 27t10.5 49.5t-5 79.5t-18 109.5t-34.5 123.5t-53 77t-90.5 18.5t-177.5 1t-161 -1t-61 -11.5t-16.5 -28zM992.5 452.5q2.5 -17.5 22.5 -84t27.5 -108t9.5 -206.5q-1 -4 4.5 -19t25.5 -27t68.5 -12t189 -1t172 0 t54 12.5t33.5 27t10.5 49.5t-5 79.5t-18 109.5t-34.5 123.5t-53 77t-90.5 18.5t-177.5 1t-161 -1t-61 -11.5t-16.5 -28zM992.5 452.5q2.5 -17.5 22.5 -84t27.5 -108t9.5 -206.5q-1 -4 4.5 -19t25.5 -27t68.5 -12t189 -1t172 0t54 12.5t33.5 27t10.5 49.5t-5 79.5t-18 109.5 t-34.5 123.5t-53 77t-90.5 18.5t-177.5 1t-161 -1t-61 -11.5t-16.5 -28zM1194 360q-2 9 4 14.5t20.5 6t56 0.5t62 -0.5t33 -9.5t22.5 -40.5t18.5 -65t12.5 -57.5t6 -42t-1 -26t-10 -14.5t-18 -7t-60 0t-66 0.5t-24.5 6.5t-10 14.5t-3.5 10q-4 52 -6.5 69.5t-7.5 39.5 t-15.5 57t-12.5 44zM1194 360q-2 9 4 14.5t20.5 6t56 0.5t62 -0.5t33 -9.5t22.5 -40.5t18.5 -65t12.5 -57.5t6 -42t-1 -26t-10 -14.5t-18 -7t-60 0t-66 0.5t-24.5 6.5t-10 14.5t-3.5 10q-4 52 -6.5 69.5t-7.5 39.5t-15.5 57t-12.5 44zM1194 360q-2 9 4 14.5t20.5 6t56 0.5 t62 -0.5t33 -9.5t22.5 -40.5t18.5 -65t12.5 -57.5t6 -42t-1 -26t-10 -14.5t-18 -7t-60 0t-66 0.5t-24.5 6.5t-10 14.5t-3.5 10q-4 52 -6.5 69.5t-7.5 39.5t-15.5 57t-12.5 44z" />
<glyph unicode="&#x26;" horiz-adv-x="1898" d="M110 0l83 220q57 188 75.5 274.5t22.5 122.5h-177l18 114l6 55h30h562q-16 -112 -22 -142l-6 -31h-173h-38q-24 -123 -43 -199t-41.5 -150t-54.5 -154.5t-47 -109.5h-195zM317 1588l7 133l-2 65h38h723q-5 -129 -9 -165l-3 -36h-222h-50q-12 -144 -26 -233t-33 -174.5 t-49 -181t-44 -127.5h-251l76 257q48 220 59.5 320.5t10.5 141.5h-225zM576 -3l67 141l54 137l44 146l39 150l24 117l16 91h137h62l-13 -110l-20 -106l-22 -91l165 4l26 107l21 143l4 51l201 -2q-13 -116 -25.5 -181.5t-42.5 -169.5t-50 -160t-43.5 -117t-82.5 -153h-180 l55 127l48 120l22 72l-165 3l-23 -65l-52 -113l-68 -141h-194h-4zM1026 935q1 27 5 35q61 185 78 246.5t31.5 139t27 200.5t19 155.5t38 52t88.5 21.5t216 2t236 -2t110 -34t25.5 -143t-26.5 -230t-40.5 -204t-40.5 -148.5t-42.5 -91.5t-60.5 -50.5t-80 -23.5t-230.5 0 t-252 1t-83.5 23.5t-18 50.5zM1232 -3q67 131 99 218.5t58 166t45.5 160.5t53.5 232h202h331q-13 -102 -36 -157h-349q-15 -75 -35 -132h349l-18 -72l-37 -92h-339l-45 -131l-14 -32l332 -3l-38 -82l-46 -76h-513zM1309.5 1090.5q-1.5 -16.5 3.5 -31t26.5 -18t88 -1 t81.5 3.5t29 14.5t24 31t20 56t21.5 90t24 124.5t21 140t-1 87t-36.5 22t-82 2t-75 -2t-32 -13.5t-16 -31.5t-15 -95t-20 -122.5t-18 -84.5t-40 -152q-2 -3 -3.5 -19.5z" />
<glyph unicode="'" horiz-adv-x="922" d="M218 1798l206 -1l125 -1q132 -248 225 -600l-302 2q-82 220 -131 334t-123 266z" />
<glyph unicode="(" horiz-adv-x="1083" d="M-2 1809h751l49 -92l87 -187h-363q22 -89 88 -318.5t101.5 -375t94.5 -540.5l377 -2l27 -109l22 -191h-788q5 107 -18 287t-44 306.5t-56.5 268t-106 356t-121.5 356t-100 241.5z" />
<glyph unicode=")" horiz-adv-x="1204" d="M-7 1810l220 -1h474q113 -291 174 -490.5t108 -395t79.5 -364.5t77.5 -568h-708l-28 192l-24 115h359q-56 353 -122 606t-182 629h-329l-80 207z" />
<glyph unicode="*" horiz-adv-x="790" d="M42 1464q-7 42 49 42q32 0 95 -10l122 -19l17 -3q8 0 7 6q-1 4 -20 16q-14 8 -47 30q-75 50 -128 83.5t-57 62.5q-3 15 7.5 26t25.5 11q20 0 53.5 -28.5t120.5 -119.5q56 -56 60 -56q6 0 5 7l-4 12q-60 137 -72 214q-10 62 29 62q45 0 55 -65q5 -28 7 -88l5 -123l1 -7 q1 -10 7 -10q5 0 9 9q93 193 149 193q13 0 26 -9.5t15 -25.5q2 -15 -3.5 -25t-71.5 -65t-93 -76q-9 -6 -8 -12q1 -8 11 -8q5 0 10 2q25 6 99.5 17.5t91.5 11.5q68 0 75 -45q6 -38 -38 -38q-19 0 -87 10l-133 20l-16 3q-9 0 -8 -6q1 -4 10 -9q73 -42 148.5 -97t80.5 -83 q2 -15 -9 -25.5t-26 -10.5q-27 0 -70.5 41.5t-131.5 147.5q-9 12 -13 12q-5 0 -4 -10q1 -4 4 -12q40 -134 53 -218q8 -51 -30 -51q-44 0 -53 56q-5 35 -4 111t5 110l1 4q-1 9 -9 9l-5 -5q-32 -67 -78.5 -136.5t-69.5 -69.5q-16 0 -28 12t-15 25q-2 16 4 27t53 58.5t90 78.5 q24 17 23 22q0 5 -6 5l-7 -1q-14 -3 -101.5 -18.5t-112.5 -15.5q-58 0 -65 44zM42 1464q-7 42 49 42q32 0 95 -10l122 -19l17 -3q8 0 7 6q-1 4 -20 16q-14 8 -47 30q-75 50 -128 83.5t-57 62.5q-3 15 7.5 26t25.5 11q20 0 53.5 -28.5t120.5 -119.5q56 -56 60 -56q6 0 5 7 l-4 12q-60 137 -72 214q-10 62 29 62q45 0 55 -65q5 -28 7 -88l5 -123l1 -7q1 -10 7 -10q5 0 9 9q93 193 149 193q13 0 26 -9.5t15 -25.5q2 -15 -3.5 -25t-71.5 -65t-93 -76q-9 -6 -8 -12q1 -8 11 -8q5 0 10 2q25 6 99.5 17.5t91.5 11.5q68 0 75 -45q6 -38 -38 -38 q-19 0 -87 10l-133 20l-16 3q-9 0 -8 -6q1 -4 10 -9q73 -42 148.5 -97t80.5 -83q2 -15 -9 -25.5t-26 -10.5q-27 0 -70.5 41.5t-131.5 147.5q-9 12 -13 12q-5 0 -4 -10q1 -4 4 -12q40 -134 53 -218q8 -51 -30 -51q-44 0 -53 56q-5 35 -4 111t5 110l1 4q-1 9 -9 9l-5 -5 q-32 -67 -78.5 -136.5t-69.5 -69.5q-16 0 -28 12t-15 25q-2 16 4 27t53 58.5t90 78.5q24 17 23 22q0 5 -6 5l-7 -1q-14 -3 -101.5 -18.5t-112.5 -15.5q-58 0 -65 44zM42 1464q-7 42 49 42q32 0 95 -10l122 -19l17 -3q8 0 7 6q-1 4 -20 16q-14 8 -47 30q-75 50 -128 83.5 t-57 62.5q-3 15 7.5 26t25.5 11q20 0 53.5 -28.5t120.5 -119.5q56 -56 60 -56q6 0 5 7l-4 12q-60 137 -72 214q-10 62 29 62q45 0 55 -65q5 -28 7 -88l5 -123l1 -7q1 -10 7 -10q5 0 9 9q93 193 149 193q13 0 26 -9.5t15 -25.5q2 -15 -3.5 -25t-71.5 -65t-93 -76 q-9 -6 -8 -12q1 -8 11 -8q5 0 10 2q25 6 99.5 17.5t91.5 11.5q68 0 75 -45q6 -38 -38 -38q-19 0 -87 10l-133 20l-16 3q-9 0 -8 -6q1 -4 10 -9q73 -42 148.5 -97t80.5 -83q2 -15 -9 -25.5t-26 -10.5q-27 0 -70.5 41.5t-131.5 147.5q-9 12 -13 12q-5 0 -4 -10q1 -4 4 -12 q40 -134 53 -218q8 -51 -30 -51q-44 0 -53 56q-5 35 -4 111t5 110l1 4q-1 9 -9 9l-5 -5q-32 -67 -78.5 -136.5t-69.5 -69.5q-16 0 -28 12t-15 25q-2 16 4 27t53 58.5t90 78.5q24 17 23 22q0 5 -6 5l-7 -1q-14 -3 -101.5 -18.5t-112.5 -15.5q-58 0 -65 44zM42 1464 q-7 42 49 42q32 0 95 -10l122 -19l17 -3q8 0 7 6q-1 4 -20 16q-14 8 -47 30q-75 50 -128 83.5t-57 62.5q-3 15 7.5 26t25.5 11q20 0 53.5 -28.5t120.5 -119.5q56 -56 60 -56q6 0 5 7l-4 12q-60 137 -72 214q-10 62 29 62q45 0 55 -65q5 -28 7 -88l5 -123l1 -7q1 -10 7 -10 q5 0 9 9q93 193 149 193q13 0 26 -9.5t15 -25.5q2 -15 -3.5 -25t-71.5 -65t-93 -76q-9 -6 -8 -12q1 -8 11 -8q5 0 10 2q25 6 99.5 17.5t91.5 11.5q68 0 75 -45q6 -38 -38 -38q-19 0 -87 10l-133 20l-16 3q-9 0 -8 -6q1 -4 10 -9q73 -42 148.5 -97t80.5 -83q2 -15 -9 -25.5 t-26 -10.5q-27 0 -70.5 41.5t-131.5 147.5q-9 12 -13 12q-5 0 -4 -10q1 -4 4 -12q40 -134 53 -218q8 -51 -30 -51q-44 0 -53 56q-5 35 -4 111t5 110l1 4q-1 9 -9 9l-5 -5q-32 -67 -78.5 -136.5t-69.5 -69.5q-16 0 -28 12t-15 25q-2 16 4 27t53 58.5t90 78.5q24 17 23 22 q0 5 -6 5l-7 -1q-14 -3 -101.5 -18.5t-112.5 -15.5q-58 0 -65 44zM42 1464q-7 42 49 42q32 0 95 -10l122 -19l17 -3q8 0 7 6q-1 4 -20 16q-14 8 -47 30q-75 50 -128 83.5t-57 62.5q-3 15 7.5 26t25.5 11q20 0 53.5 -28.5t120.5 -119.5q56 -56 60 -56q6 0 5 7l-4 12 q-60 137 -72 214q-10 62 29 62q45 0 55 -65q5 -28 7 -88l5 -123l1 -7q1 -10 7 -10q5 0 9 9q93 193 149 193q13 0 26 -9.5t15 -25.5q2 -15 -3.5 -25t-71.5 -65t-93 -76q-9 -6 -8 -12q1 -8 11 -8q5 0 10 2q25 6 99.5 17.5t91.5 11.5q68 0 75 -45q6 -38 -38 -38q-19 0 -87 10 l-133 20l-16 3q-9 0 -8 -6q1 -4 10 -9q73 -42 148.5 -97t80.5 -83q2 -15 -9 -25.5t-26 -10.5q-27 0 -70.5 41.5t-131.5 147.5q-9 12 -13 12q-5 0 -4 -10q1 -4 4 -12q40 -134 53 -218q8 -51 -30 -51q-44 0 -53 56q-5 35 -4 111t5 110l1 4q-1 9 -9 9l-5 -5 q-32 -67 -78.5 -136.5t-69.5 -69.5q-16 0 -28 12t-15 25q-2 16 4 27t53 58.5t90 78.5q24 17 23 22q0 5 -6 5l-7 -1q-14 -3 -101.5 -18.5t-112.5 -15.5q-58 0 -65 44zM42 1464q-7 42 49 42q32 0 95 -10l122 -19l17 -3q8 0 7 6q-1 4 -20 16q-14 8 -47 30q-75 50 -128 83.5 t-57 62.5q-3 15 7.5 26t25.5 11q20 0 53.5 -28.5t120.5 -119.5q56 -56 60 -56q6 0 5 7l-4 12q-60 137 -72 214q-10 62 29 62q45 0 55 -65q5 -28 7 -88l5 -123l1 -7q1 -10 7 -10q5 0 9 9q93 193 149 193q13 0 26 -9.5t15 -25.5q2 -15 -3.5 -25t-71.5 -65t-93 -76 q-9 -6 -8 -12q1 -8 11 -8q5 0 10 2q25 6 99.5 17.5t91.5 11.5q68 0 75 -45q6 -38 -38 -38q-19 0 -87 10l-133 20l-16 3q-9 0 -8 -6q1 -4 10 -9q73 -42 148.5 -97t80.5 -83q2 -15 -9 -25.5t-26 -10.5q-27 0 -70.5 41.5t-131.5 147.5q-9 12 -13 12q-5 0 -4 -10q1 -4 4 -12 q40 -134 53 -218q8 -51 -30 -51q-44 0 -53 56q-5 35 -4 111t5 110l1 4q-1 9 -9 9l-5 -5q-32 -67 -78.5 -136.5t-69.5 -69.5q-16 0 -28 12t-15 25q-2 16 4 27t53 58.5t90 78.5q24 17 23 22q0 5 -6 5l-7 -1q-14 -3 -101.5 -18.5t-112.5 -15.5q-58 0 -65 44z" />
<glyph unicode="+" horiz-adv-x="1663" d="M254 812h524q-23 49 -139 407h311q43 -129 139 -415h539q6 -30 54 -293h-521q13 -100 31.5 -193.5t47.5 -321.5h-296l-15 8q-35 228 -52.5 338t-40.5 185h-532z" />
<glyph unicode="," horiz-adv-x="826" d="M371 376l206 -1l153 -1l16 -248l7 -347l-281 -3l-51 353l-17 83z" />
<glyph unicode="-" horiz-adv-x="1400" d="M285 825h617h395l72 -314h-382h-644z" />
<glyph unicode="." horiz-adv-x="703" d="M344 383l475 1q71 -241 72 -389h-492q-1 147 -55 388z" />
<glyph unicode="/" horiz-adv-x="1478" d="M373 4l401 1792h465l-408 -1800h-458v8z" />
<glyph unicode="0" horiz-adv-x="1720" d="M0 1672.5q-15 63.5 30.5 102.5t157.5 43t431 4t476.5 -4t253 -68.5t180 -281t152 -451.5t102 -402.5t52.5 -292.5t-4 -180.5t-76.5 -99t-139 -47t-461.5 0t-507.5 3.5t-189.5 45.5t-81.5 99t-20.5 68.5q-43 364 -65 485.5t-62 273.5t-126.5 395t-101.5 306.5zM550 1480 q-57 -2 9 -168t93.5 -289t114 -48.5t258 224t72.5 253.5q-50 59 -490 31zM793 362q65 -68 505 -39l61.5 13t12 173.5t-76 308.5t-123.5 43t-244.5 -215.5t-134.5 -283.5z" />
<glyph unicode="1" horiz-adv-x="1320" d="M139 1275l394 534h421q44 -127 111.5 -345.5t107 -406.5t84.5 -384t116 -682l-452 -1q-43 283 -69 430t-62 339t-124 506l-365 -486q-104 316 -137 406t-25 90z" />
<glyph unicode="2" horiz-adv-x="1640" d="M16 1513q-42 98 67 190t287.5 95t102.5 3q604 0 691 -21.5t163 -76t192 -350.5t7 -372t-406 -231.5t-284 -224t20 -91.5t13 -49.5t927 -18.5l56 -372h-1435q-44 288 -73 463t-7 232.5t365.5 269.5t382.5 242.5t-20 141.5t-144.5 117.5t-241.5 6.5t-139.5 -77t44.5 -166 h-463z" />
<glyph unicode="3" horiz-adv-x="1637" d="M30 1798l462 8q571 14 663.5 -69t150.5 -239.5t44.5 -239.5t-74.5 -155.5t-68 -72.5q149 -68 232 -140t122.5 -276.5t36 -310.5t-98.5 -194.5t-203.5 -103t-950.5 -7.5q-19 236 -36 360q855 -37 850 120.5t-126.5 219t-253.5 68.5l-239 23l-70 349q390 25 413.5 134 t-50.5 143.5t-197.5 52.5t-487.5 -4z" />
<glyph unicode="4" horiz-adv-x="1614" d="M155 897l468 893l449 1q92 -266 160 -505t105 -361h314q83 -227 101 -310.5t10 -83.5h-311l65 -312l41 -228h-457l-107 540h-734q-50 212 -104 366zM617 941l278 -3l-89 327z" />
<glyph unicode="5" horiz-adv-x="1691" d="M-25 1799h658h738l126 -344h-891l101 -274q411 0 580 -34t300 -155.5t166 -483.5t-104.5 -424.5t-304 -77.5t-411.5 -15h-480l-31 297l-18 98q575 -14 713.5 14.5t151.5 128t-16.5 155.5t-100.5 98t-212 42h-624q-69 265 -141.5 455.5t-122.5 324.5t-77 195z" />
<glyph unicode="6" horiz-adv-x="1554" d="M212 820q-9 136 38 234.5t416 750.5l8 -7h492l-347 -614q302 -14 441 -50.5t236.5 -171t146 -293t-2 -340.5t-204 -254.5t-321 -80t-345 1t-275 102.5t-165 241.5t-88.5 246t-30 234.5zM670 785.5q-53 -59.5 19 -254t274.5 -198t246.5 138t-4 230t-120.5 116.5t-217.5 27 q-145 0 -198 -59.5z" />
<glyph unicode="7" horiz-adv-x="1777" d="M-12 1804h676h668h91q110 -251 137 -323l27 -72l-403 -1413h-535l400 1405l-892 -1q-74 168 -111.5 255.5t-57.5 148.5z" />
<glyph unicode="8" horiz-adv-x="1746" d="M8 1636.5q-4 68.5 39.5 106.5t97 49.5t486.5 11.5q570 0 658 -57t147 -182.5t109 -266t20.5 -201t-113.5 -115.5q150 -37 202.5 -112.5t94.5 -231.5t56.5 -251t15.5 -152t-31.5 -102.5t-102 -79.5t-154 -45.5t-497.5 -10.5q-274 5 -418 47.5t-200.5 130t-86 270 t-47.5 280t19 149.5t86 90q-160 40 -208.5 138.5t-108.5 282t-64 252zM519 1382q37 -123 96.5 -139.5t183.5 -16.5h209.5t90.5 36t-33.5 123.5t-109 101t-272.5 16.5t-165 -121zM749 584q37 -188 96 -215.5t183.5 -27.5h209.5t91.5 61t-33.5 194.5t-131 152t-272 21 t-144 -185.5z" />
<glyph unicode="9" horiz-adv-x="1570" d="M155.5 1467q44.5 182 198 254.5t323 80t345.5 -11.5t281.5 -102.5t178.5 -231t98 -246t27.5 -234.5t-31 -234.5t-386.5 -750.5l-8 7h-498l331 614q-306 14 -448 50.5t-245 171t-157 293t-9.5 340.5zM587 1344.5q-40 -141.5 11.5 -230t126 -116.5t232.5 -32 q158 -3 184 60.5t-50 251t-270 198t-234 -131z" />
<glyph unicode=":" horiz-adv-x="839" d="M242 1068l402 2l110 -324h-411zM421 305l1 21l410 -2l44 -327h-420z" />
<glyph unicode=";" horiz-adv-x="3549" d="M295 1825q684 -7 935.5 -15t312 -36t128 -76.5t122 -172t99.5 -281t54.5 -213t-5.5 -141.5t-211 -186q424 -243 666 -442l21 -278l-490 1q-364 323 -734 505q14 -91 73 -504h-530q-36 377 -68 589t-83.5 419.5t-128.5 427t-161 403.5zM922 1475q86 -193 172 -520 q211 0 272.5 17.5t71 67.5t0.5 89.5t-56.5 157t-116 153t-343.5 35.5zM1973 1791h463l830 -1q125 -248 159 -382l-845 7q66 -179 101 -300l844 -7q46 -158 82 -367h-845q51 -299 54 -374l864 -7q17 -187 20 -375h-1316l-15 195q-7 112 -37 314.5t-74.5 382.5t-103 367 t-181.5 547z" />
<glyph unicode="&#x3c;" horiz-adv-x="1898" d="M6 835l145 506l118 -170l680 3q78 -169 168.5 -363.5t118.5 -363.5l-684 2l59 -213q-281 271 -605 599zM1062 1174l287 -5q91 -174 163 -349t112 -373h-274q-4 134 -129 401.5t-159 325.5zM1454 1171l190 -2q99 -176 120.5 -227.5t89.5 -214.5t75 -276h-189 q-27 128 -62 235t-224 485zM1766 1161h130q39 -49 80 -130t52 -106.5t39 -79t125 -393.5l-135 -1q-24 128 -59.5 225t-74.5 176.5t-157 308.5zM2013 1155l82 3q113 -175 144.5 -271t73 -207.5t46.5 -222.5l-75 1q-15 82 -21.5 114t-24 80t-46 137t-179.5 366z" />
<glyph unicode="=" horiz-adv-x="2020" d="M214 1272h1466l30.5 -62.5t94.5 -279.5h-1465q-36 143 -106 314zM375 783h1458q35 -150 52 -257.5t16 -113.5h-1473q-13 202 -33 286.5z" />
<glyph unicode="&#x3e;" horiz-adv-x="1828" d="M32 1160l73 2q100 -157 129 -254t69 -208t42 -239l-76 1q-8 94 -32.5 177.5t-51 172.5t-153.5 348zM232 1167l132 4q23 -42 52.5 -118.5t38.5 -102.5t51.5 -135.5t68.5 -353.5l-139 1q-8 146 -34.5 242.5t-58 176.5t-111.5 286zM493 1169l183 1q75 -160 91 -211.5 t69 -215.5t47 -291l-190 4q-9 145 -34.5 252t-165.5 461zM800 1169l275 1q68 -167 124 -343t64 -381l-254 1q5 146 -95.5 415.5t-113.5 306.5zM1199 1169l607 3l-44 163l513 -491l-207 -573l-59 170h-606q-45 274 -79 390t-125 338z" />
<glyph unicode="?" horiz-adv-x="1542" d="M-35 1797q174 -7 547 0.5t482.5 -3.5t198.5 -54t124 -104t99 -209t122 -367.5t53.5 -293.5t-18 -108.5t-121.5 -67.5l-789 -1q-25 126 -82 362h545q-56 207 -169 466h-821l-171 388v-8zM699 329l2 22l424 -2l27 -354h-433z" />
<glyph unicode="@" horiz-adv-x="2192" d="M249.5 1706q14.5 50 81 71.5t467.5 21.5q269 0 480.5 -3.5t298.5 -28.5t148 -100.5t141.5 -277t123 -375.5t4 -279t-181.5 -145t-289 44q-194 -111 -382 -73.5t-209 258.5h626q183 47 114.5 229t-116 294.5t-104 155.5t-212.5 43t-357 3.5t-229.5 -29t8.5 -112t97 -302 t72 -431t39.5 -305t259.5 -103.5h710l10 -267h-344.5h-387t-376 18t-135 57.5t-70.5 115t-32.5 298.5t-56.5 409.5t-101 373.5t-87 288t-10.5 151zM935 818q-43 246 114.5 297.5t297 13.5t176 -146t27.5 -165h-615zM1122 844q-3 45 24 66t81 24t78 -23.5t27 -77t-26.5 -64 t-72 -13.5t-75.5 21.5t-36 66.5z" />
<glyph unicode="A" horiz-adv-x="1631" d="M80 1446q-24 76 -23 137q1 81 41 137q72 98 150 102q70 4 261 4h50q233 0 676 -24q76 -113 143.5 -234.5t140 -303.5t129 -387t92.5 -391t66 -489h-453l-46 334l-37 160l-454 7l39 -243l11 -258h-466q-18 250 -47 421t-65.5 337.5t-95 341t-112.5 349.5zM580 1324 q18 -90 142 -454l452 -1q-56 228 -92.5 314.5t-130.5 299.5q-116 8 -195 8q-158 -1 -172 -31q-13 -26 -12 -65q0 -31 8 -71z" />
<glyph unicode="B" horiz-adv-x="1587" d="M-6 1802l371 8q635 -9 740.5 -46t158 -112t80.5 -158q28 -82 40 -194q2 -15 1 -30q0 -94 -69 -166q92 -46 143.5 -98.5t91 -131.5t75 -192t62.5 -256q18 -95 18 -158q0 -32 -4 -56q-14 -70 -71 -138t-128.5 -75.5t-401.5 -7.5h-519h-142l-19 15q-36 390 -56 533 t-62.5 309t-92 335t-106.5 322.5t-110 296.5zM570 1404q36 -82 68 -192q53 -2 95 -2q130 0 162 16q41 22 71 62q22 30 23 64q0 12 -3 24q-10 49 -43 79t-95 39.5t-190 12.5q-25 1 -45 1q-81 0 -82 -10q0 -7 39 -94zM782 645q24 -119 57 -315q186 0 291 7q106 7 112 85 q1 16 1 31q0 64 -21 135q-26 89 -64 136q-37 48 -127 58q-68 8 -139 7q-24 -1 -48 -1q-92 -3 -92 -12z" />
<glyph unicode="C" horiz-adv-x="1501" d="M33 1614q-2 8 -2 17q-1 45 49 105q60 72 176 76q58 2 148 2t212 -2q245 -4 614 -19l106 -267l20 -63l12 -46q-339 8 -516.5 8t-198.5 -15.5t-25 -53.5q-1 -6 -1 -13q-1 -39 19 -119q24 -94 65 -242.5t65 -249.5t39.5 -148.5t28 -68t63.5 -63t145 -42.5h615l30 -138 l31 -278h-968h-67.5t-153 61.5t-123.5 129.5t-56.5 224.5t-82.5 373.5t-99.5 366t-76.5 244t-43.5 133t-24.5 88z" />
<glyph unicode="D" horiz-adv-x="1824" d="M30 1810h562q613 -22 673 -37.5t108 -49t101.5 -105.5t112.5 -177.5t126.5 -286t131 -425.5t79.5 -313q13 -57 13 -106v-18q-3 -56 -17.5 -117t-53.5 -98.5t-113 -60t-1213 -29.5q-37 330 -77.5 493t-85.5 339.5t-128.5 406.5t-204.5 562zM626 1469q80 -161 117 -245 t73 -178t74.5 -213t63 -224t33.5 -210q346 0 387 14q40 15 54 53q4 11 4 29q0 46 -24 137q-34 128 -68.5 251.5t-91.5 242.5t-98.5 185t-87.5 105t-137.5 46t-298.5 7z" />
<glyph unicode="E" horiz-adv-x="1635" d="M30 1802h463l830 -1q125 -248 159 -382l-845 7q66 -179 101 -300l844 -7q46 -158 82 -367h-845q51 -299 54 -374l864 -7q17 -187 20 -375h-1316v8q-22 299 -52 501.5t-74.5 382.5t-103 367t-181.5 547z" />
<glyph unicode="F" horiz-adv-x="1695" d="M23 1795q459 0 1313 -1q116 -241 158 -375l-862 7q68 -179 106 -300l862 -7q48 -158 86 -367h-862q48 -306 55 -365.5t33 -397.5h-474q-5 165 -11.5 239.5t-38.5 277t-79.5 382.5t-109 367t-176.5 540z" />
<glyph unicode="G" horiz-adv-x="1729" d="M33 1606q-1 8 -1 15q0 45 51 107q60 72 179 76q60 2 154 2t223 -2q257 -4 683 -19l118 -266l22 -62l14 -46q-393 8 -616 15q-23 1 -44 1q-179 0 -188 -54q-2 -11 -2 -22q0 -54 40 -132q50 -94 98 -242t75.5 -248.5t45 -147.5t30.5 -67.5t30.5 -41t56 -42.5t98.5 -26 q52 -3 131 -3q11 0 23 1q67 0 67 66q0 27 -11 64q-19 70 -45.5 84.5t-157.5 15.5l-96 343q131 3 220 3t185.5 -2t232.5 -6q136 -374 149.5 -476t55.5 -268q11 -45 11 -80q0 -96 -85 -120q-114 -32 -520.5 -32h-417h-70.5t-119 15.5t-101 61t-74 113.5t-66.5 223.5t-97 372 t-114.5 364.5t-87 242.5t-52.5 132.5t-27.5 87z" />
<glyph unicode="H" horiz-adv-x="1841" d="M30 1801h342h182l-23 -1q117 -242 164.5 -363.5t112.5 -318.5l425 -8q-86 251 -161 417.5t-139 273.5l510 -1q137 -265 198 -416.5t120 -337.5t103.5 -360.5t67.5 -330t27 -368.5h-486q-38 296 -61.5 436.5t-68.5 307.5l-425 7q31 -151 47.5 -284t37.5 -459h-493h-8 q-28 326 -55 485.5t-75.5 330t-104 345t-109.5 311t-128 334.5z" />
<glyph unicode="I" horiz-adv-x="929" d="M30 1815l494 -8q150 -326 224.5 -512t137.5 -417.5t94.5 -428.5t51.5 -455h-486q-7 220 -34.5 368t-66 299.5t-90.5 326t-113 334t-109.5 273.5t-102.5 220z" />
<glyph unicode="J" horiz-adv-x="1513" d="M279 698q105 -5 215 -5t225 5q51 -164 76 -239.5t75 -78.5q44 -4 108 -4h18q77 1 107.5 16.5t32.5 90.5q1 5 1 10q0 73 -35 197q-37 133 -98.5 311.5t-123 330.5t-110.5 266t-81 205h493q113 -220 202.5 -459t156.5 -459t104 -433q32 -184 32 -249q0 -9 -1 -16 q-5 -53 -41.5 -95t-97.5 -64.5t-137.5 -30.5t-516.5 -8q-319 0 -360 18t-64.5 54.5t-35 69.5t-40.5 168t-104 399z" />
<glyph unicode="K" horiz-adv-x="1959" d="M12 1809h528q131 -281 188.5 -425t83.5 -220l26 -76l230 721h520l-291 -903q325 -243 424 -364.5t186 -247t154 -300.5h-545q-113 205 -227.5 326.5t-186.5 185.5q-64 58 -64 58.5t1 -0.5l-122 91q48 -220 63 -338t32 -323h-520l-8 8q-31 334 -63 543t-100.5 421.5 t-147 440.5t-161.5 402z" />
<glyph unicode="L" horiz-adv-x="1849" d="M30 1819l500 -8q111 -205 185 -383.5t129 -353t102 -357t63 -319.5l926 -7q28 -182 32 -388l-9 -7h-1419l-15 -8q-39 403 -72 574t-93.5 387t-137.5 410t-130.5 319t-60.5 141z" />
<glyph unicode="M" horiz-adv-x="2009" d="M1 1803h547l471 -440l145 447l508 -7q132 -251 204 -471t105 -322.5t92.5 -437t69.5 -577.5h-456q-46 433 -97 619t-176 518l-230 -407l-428 374q105 -344 134 -522.5t45 -376.5q10 -122 10 -171q0 -31 -4 -34h-453l7 -7l-14 15q-21 334 -57.5 520t-91 383.5 t-131.5 409.5q-77 214 -141 354q-59 129 -60 133q0 1 1 0z" />
<glyph unicode="N" horiz-adv-x="1807" d="M32 1810h420l858 -941q-110 379 -191 580t-161 361h509q156 -357 206 -486t104 -308t107.5 -474.5t69.5 -546.5l-396 1l-646 679q37 -339 51.5 -430t20.5 -250h-480l-8 8l-14 171q-13 171 -50.5 387.5t-105.5 436.5t-130 402t-117 296q-48 100 -48 112q0 2 1 2z" />
<glyph unicode="O" horiz-adv-x="1841" d="M34 1672q-4 16 -3 31q0 43 34 72q46 39 159.5 43t438 4t484.5 -4t257 -68.5t184 -281t157 -451.5t105.5 -402.5t54.5 -292.5q9 -57 9 -100q0 -50 -12 -80q-22 -56 -78 -100q-55 -42 -141 -46q-43 -2 -160 -2t-309 2q-383 4 -515.5 3.5t-193 45t-83 99t-21.5 68.5 q-45 364 -68 485.5t-64 273.5t-130 394.5t-105 306.5zM622 1406q10 -40 60.5 -194.5t77 -251t44 -173.5t62.5 -309q2 -9 14 -43t36.5 -63t71 -29t180.5 -2q67 -1 107.5 -1.5t54.5 1.5q30 2 46 29.5t20 63.5q1 6 0 13q0 35 -14 101q-17 80 -43 186t-69.5 255.5t-91 287 t-86.5 178.5t-95 43.5t-169 2.5t-152.5 -2.5t-51.5 -27.5q-7 -14 -7 -32q0 -15 5 -33z" />
<glyph unicode="P" horiz-adv-x="1670" d="M30 1793h901q342 0 443.5 -80t156 -216.5t112 -327.5t70 -248t16.5 -120v-11q0 -56 -36 -110q-40 -58 -100 -81q-47 -17 -441 -17q-107 0 -240 1l56 -393l12 -197h-475h-14q-30 281 -60 474.5t-90.5 429t-134 433t-125 334t-51.5 129.5zM653 1459q78 -191 124 -346.5 t59 -177.5h413t19 39v7q0 44 -52 181q-56 149 -82 220q-26 70 -84 81q-33 6 -161 6q-93 0 -236 -3v-7z" />
<glyph unicode="Q" horiz-adv-x="1749" d="M50 1587q-19 49 -19 86q0 52 39 81q67 49 226.5 49h482t409.5 -3.5t186 -79.5t156 -220.5t135.5 -383.5t88.5 -495q1 -25 1 -48q0 -217 -84 -301l84 -120l73 -164h-338l-24 66q-268 -66 -572 -66t-391.5 72.5t-109 247t-44 319t-77.5 334t-115 349t-107 277.5zM584 1424 q10 -42 63 -200.5t81.5 -257.5t47 -178t43 -197.5t25 -123.5t13.5 -39.5t38 -64.5t71.5 -30t149 30t184.5 49l-100 251l129 48q-45 132 -91 285.5t-95.5 294.5t-89 183t-96 44.5t-169.5 2.5t-152 -2.5t-51 -28.5q-6 -13 -6 -31q0 -16 5 -35z" />
<glyph unicode="R" horiz-adv-x="1843" d="M30 1825q684 -7 935.5 -15t312 -36t128 -76.5t122 -172t99.5 -281.5q45 -156 55 -212q4 -22 3 -48q0 -41 -9 -94q-15 -86 -211 -186q383 -304 576 -725h-530q-143 215 -249 318.5t-343 233.5q23 -132 82 -545h-530q-36 377 -68 589t-83.5 419.5t-128.5 427t-161 403.5z M657 1475q86 -193 172 -520q211 0 273 17q60 18 70 68q5 26 5 49t-4 41q-9 40 -56.5 157t-116 152.5t-343.5 35.5z" />
<glyph unicode="S" horiz-adv-x="1733" d="M38 1606q-6 20 -7 38q-1 45 37 83q52 53 151 68t377 15t360 -7q248 0 364 -64.5t165 -178t93 -250.5l-474 -7q-65 151 -187 169q-88 13 -167 13q-32 0 -60 -2q-98 -7 -98 -51v-6q6 -50 42 -148.5t70.5 -136.5t96.5 -61t242.5 -23t374.5 -29t267 -170t113 -379 q23 -136 23 -226q1 -67 -13 -109q-30 -96 -265 -160h-572q-26 -1 -51 -1q-503 0 -560 407l-11 170h450q21 -129 40.5 -164t45.5 -54t381 -19q103 21 103 128q1 32 -9 71q-40 172 -136 194.5t-280 30.5t-345 15.5t-249.5 75.5t-145 251.5t-100.5 316t-66 200.5z" />
<glyph unicode="T" horiz-adv-x="1713" d="M-3 1803h76h1435q110 -255 138 -327l27 -71h-540q109 -284 165.5 -460.5t98.5 -345.5t106 -610h-499q-92 509 -172 830t-208 580h-447q-117 277 -180 404z" />
<glyph unicode="U" horiz-adv-x="1830" d="M30 1807l493 7q125 -229 188 -414.5t114 -364.5t85.5 -380t81 -239t111.5 -41.5t141 -3.5t130 15q33 9 32 88q0 50 -13 128q-34 201 -142.5 513t-295.5 691h516q260 -667 319 -848t100 -441q12 -79 12 -145q0 -152 -66 -240q-94 -126 -360 -126t-516 -4h-31 q-227 0 -327 57q-107 61 -124.5 232t-51 334t-65 284.5t-105 315t-116.5 323t-110 259.5z" />
<glyph unicode="V" horiz-adv-x="1699" d="M30 1804l507 -1q108 -227 219 -527t219 -839q113 378 119 561q2 53 1 106q1 130 -9 260q-14 182 -48 440h521q29 -205 41 -399q6 -88 6 -190q0 -123 -8 -266q-15 -262 -115.5 -535t-212.5 -418h-666q-79 380 -185 752t-197.5 600t-138 338t-46.5 103z" />
<glyph unicode="W" horiz-adv-x="1957" d="M30 1810h456q126 -309 206.5 -544.5t140.5 -627.5l209 368l435 -390q-103 434 -161.5 616.5t-242.5 585.5h520l-7 7l15 -15q162 -334 215.5 -524t101 -396t76 -418.5t39.5 -476.5l-483 -1l-414 316l-251 -317l-439 6q-27 246 -64 470t-54.5 322.5t-68 288t-95.5 338.5 t-134 392z" />
<glyph unicode="X" horiz-adv-x="1655" d="M30 1791h533l287 -403l130 411h494l-268 -914l639 -894h-524l-298 432l-135 -432h-445l166 614l73 282z" />
<glyph unicode="Y" horiz-adv-x="1691" d="M-39 1790h457q262 -305 871 -752q-50 235 -208 759h464q135 -426 203.5 -672.5t122 -535t75.5 -600.5h-486l7 7l-68 502q-281 190 -450.5 314.5t-306.5 223.5t-360.5 309t-320.5 445z" />
<glyph unicode="Z" horiz-adv-x="1766" d="M30 1819h1450q52 -122 170 -387l-626 -1025l873 -1l7 -57t18 -338h-1443q-12 152 -35 365l643 1041h-896q-66 136 -161 402z" />
<glyph unicode="[" horiz-adv-x="2747" d="M32 456q-5 75 24 140.5t50.5 121.5t86.5 145l66 2q-74 -92 -104 -174t-39.5 -110.5t-22.5 -120.5zM171 456q50 210 69 241.5t25.5 45.5t30.5 59.5t51 73.5h97q-70 -129 -95.5 -175.5t-47.5 -102.5t-28 -142h-102zM370 456q-5 75 38 171.5t56 126t73 127.5l145 2 q-117 -217 -138 -279t-29 -148h-145zM604 454q13 125 59 228.5t104 204.5l220 2q-24 -33 -104.5 -190t-71.5 -245h-207zM906 458q11 103 35.5 156t57.5 126.5t88 153.5l1457 9l29 100l272 -306l-440 -339l23 110zM1223 542h2h65l12 29l15 52l3 9q85 0 94 3t19 12.5t13.5 19 t5.5 18.5t7.5 38t6.5 51t-7.5 34.5t-56.5 12.5h-122q1 1 -1 -20.5t-5.5 -52.5t-11 -67.5t-16 -66.5t-23.5 -72zM1333 688q0 2 3.5 26t6.5 55h1q47 3 52.5 -1t5.5 -13t-1.5 -28.5t-5.5 -27.5t-12.5 -9.5t-49.5 -1.5zM1471 542h65l14 38l10 39l62 -1l-5 -25l-15 -51h62 q15 46 22.5 75t13 61t7.5 60t1.5 47t-4.5 37q-58 3 -90.5 3.5t-43.5 0t-27 -16t-20 -43t-7.5 -54.5t-10 -53t-13.5 -52.5t-21 -64.5zM1568 677l1 3q9 53 13 67t10 22t54 3q-3 -33 -4.5 -46.5t-8.5 -49.5zM1723 539h2h76q19 53 23 62.5t9 27.5q21 -24 28 -40t11 -51h76 q-7 68 -28 116q36 17 44.5 30.5t11 22t7 33.5t6.5 45t-8.5 32.5t-85.5 14.5h-97q-1 -28 -6 -63.5t-13.5 -68.5t-19.5 -66.5t-36 -94.5zM1846 697q1 6 7 28.5t10 51.5q38 0 47.5 -3.5t5 -23.5t-6 -25.5t-6.5 -13.5t-15.5 -11t-41.5 -3zM2032 769h72q1 -49 -24 -146l-24 -81 h72q4 10 14 40.5t15.5 57.5t11 55.5t7.5 73.5h73l1 11t4 52h-207h-12v-20z" />
<glyph unicode="\" horiz-adv-x="1479" d="M-10 1809h493l1227 -1805l4 -8h-486z" />
<glyph unicode="]" horiz-adv-x="2674" d="M30 882q34 194 42 282.5t20 189.5t14 217.5t2 172t-1 53.5l-1 7h213q6 -116 0 -269t-55 -429q114 193 148.5 286.5t61 186.5t57.5 225h221q-25 -104 -53 -203.5t-81 -233t-143.5 -272.5t-162.5 -213h-282zM576 879q68 156 98.5 259t55.5 197t44 191.5t49 276.5h212h347 q-12 -121 -34 -187h-366q-13 -89 -32 -157h365l-18 -86l-36 -109h-354l-45 -154l-13 -40l347 -4l-38 -96l-46 -91h-536zM1190 -12q88 175 119 249.5t61.5 168t48.5 177.5t44 215l200 1q-17 -115 -32.5 -193t-38 -153t-50 -154.5t-56.5 -138.5l391 3q-34 -79 -86 -169l-5 -2 h-588zM1237 882q74 190 108.5 297t60 212t41.5 215t21 200h303q232 -7 264 -46t26 -103.5t-20.5 -142t-23.5 -105t-41.5 -83.5t-189.5 -98q124 -136 130 -350h-216q-15 109 -38 161.5t-87 128.5q-16 -60 -27 -89t-74 -197h-234h-3zM1616 1379q96 0 127.5 9t48 33t22 44 t19 81.5t-16 74.5t-146.5 8q-12 -90 -30 -161t-24 -89zM1856 -1q67 135 98 224.5t56.5 171t45 165.5t52.5 239h199h325q-13 -105 -35 -162h-343q-16 -77 -35 -136h343l-18 -74l-36 -94h-333l-45 -134l-13 -35l321 2l-33 -89l-44 -78h-505zM2025 1092l32 86h204l-19 -65 q1 -36 9.5 -45.5t147.5 -4.5q76 8 94 91.5t-17 105.5t-116.5 17.5t-151 4.5t-95 43.5t-5 129t32 156t20 96.5t38 62t77.5 34t173 7t160 -4q113 0 150.5 -32t34.5 -90t-13 -127h-207q24 92 -42 92h-115.5t-56 -29.5t-15.5 -75.5t-2 -65t29 -31t102.5 -6.5t138 -16.5t84 -91.5 t-6 -193.5t-67 -172.5t-154.5 -81.5h-258q-254 -10 -186 206z" />
<glyph unicode="^" horiz-adv-x="3113" d="M34 644l303 -342l33 112l1631 9q60 91 97 173t64.5 141.5t41.5 174.5l-1688 -2l41 157zM591 1011q0 39 21 60t55 21q32 0 52.5 -21t20.5 -57v-8h-121q2 -25 15 -38t34 -13q14 0 25.5 7.5t13.5 14.5h27q-2 -16 -19.5 -29t-46.5 -13q-35 0 -56 20t-21 56zM599 535 q21 40 34.5 67.5t27.5 60.5t22.5 61t14 47.5t4.5 18.5h112q42 0 47 -11t0 -30.5t-15 -47t-14 -35t-8.5 -17t-15 -17t-19.5 -11t-86 -3.5l-4 -6l-23 -48l-16 -29h-58h-3zM621 1028h90q-3 18 -10 29q-13 14 -34 14q-20 0 -32.5 -11.5t-13.5 -31.5zM725 669q37 0 45.5 2 t13.5 8.5t9.5 24.5t6.5 26.5t-2.5 12t-47.5 2.5l-1 -2q-7 -27 -15.5 -49t-8.5 -25zM823 536q20 35 31.5 59.5t21.5 47.5t18 48t16.5 49.5t26.5 39t28 15t38 0t82 -3.5q0 -15 -3 -32.5t-10 -43t-18 -55t-22.5 -55.5t-34.5 -69h-57l25 47l9 24h-56l-16 -34l-22 -37h-57z M935 660l60 -1q13 32 16 44.5t13 42.5q-42 4 -49 -2.5t-13 -19.5t-26 -63zM1053 534q30 56 45 86.5t27.5 60.5t22.5 62.5t16 56.5h80q61 -1 67.5 -12.5t1 -30t-13 -41t-11 -30.5t-13 -20.5t-41.5 -26.5q8 -44 4 -105h-62q2 31 -1 46t-16 37q-8 -17 -12.5 -26t-29.5 -57h-62 h-2zM1181 678q25 0 34 2t14 9t8 13t10 24.5t0 21.5t-39 2q-7 -26 -16.5 -47t-10.5 -25zM1327 536l34 74q36 89 43 133h-59l11 39l3 18h8h172q-10 -37 -13 -47l-3 -10h-59q-10 -41 -19 -66.5t-18.5 -50.5t-22 -52t-19.5 -38h-58zM1492 536l20 34q19 44 27.5 66.5t17.5 48.5 t15.5 49.5t11.5 40t7 32.5l63 -1q-12 -48 -19 -75.5t-20 -62t-27 -64t-35 -68.5h-61zM1628 539l1 1q22 44 36.5 74t24 57t18.5 55t24 80h61h105q-6 -35 -14 -56l-107 1q-7 -27 -14 -44l108 -2q-8 -23 -22 -54h-107q-19 -44 -26 -55l110 -1q-15 -29 -30 -56h-168zM2113 428 q26 38 112 228.5t84 257.5l233 2q-16 -140 -67.5 -255.5t-116.5 -228.5zM2460 431q123 248 147 318t34 165h161q5 -84 -43 -191t-62.5 -141t-75.5 -150zM2720 432q78 156 106 208t53 115.5t32 158.5h115q-57 -235 -78 -270t-29 -51t-34 -67t-57 -94h-108zM2927 431 q82 129 116 220.5t44.5 123.5t24.5 135l65 -2q0 -78 -28.5 -151.5t-52 -136.5t-96.5 -188z" />
<glyph unicode="_" horiz-adv-x="1634" d="M348 0v6h1460q15 -60 22 -117t15 -182h-1475q0 137 -11 212t-11 81z" />
<glyph unicode="`" horiz-adv-x="3221" />
<glyph unicode="a" horiz-adv-x="1748" d="M-3 -3q102 250 155 421t96.5 337.5t69 341t55.5 349.5t148.5 273.5t198.5 102.5q72 4 264 4h50q232 0 664 -24q22 -112 31 -234q3 -47 3 -102q0 -89 -8 -202q-14 -182 -56.5 -387t-95.5 -391t-169 -489h-453l115 334l39 160l-451 7l-77 -243l-113 -258h-466zM704 876 l477 -7q58 228 65 314.5t29 299.5q-117 8 -199 8q-163 -1 -192 -31q-44 -46 -70.5 -136t-104.5 -440z" />
<glyph unicode="b" horiz-adv-x="1517" d="M2 16q153 394 202.5 538.5t87 312t70 338t50 326t34.5 277.5l360 9q638 -2 711 -43t93 -106q18 -59 18 -133v-15q-2 -84 -40.5 -197.5t-78.5 -136.5t-80 -61q70 -46 96 -99q25 -53 27 -133q0 -6 1 -12q-1 -77 -19 -182q-20 -114 -61.5 -258.5t-89.5 -216t-138 -140 t-165 -76t-405 -7.5h-519h-142zM569 343q194 0 302.5 7t152.5 85.5t62 168.5q9 48 9 85q0 31 -7 53q-15 48 -100 58q-64 8 -135 7q-25 -1 -49 -1q-98 -3 -98 -13q0 -11 -33 -131q-34 -120 -104 -319zM798 1249q46 -1 83 -2q122 -1 157 15q46 20 89.5 57t56.5 82q6 21 6 38 q0 20 -8 35q-16 28 -66 37t-160 11q-20 0 -37 1q-75 1 -77 -9q-3 -12 -16 -90.5t-28 -174.5z" />
<glyph unicode="c" horiz-adv-x="1567" d="M124 410q42 156 86 373t66 366t34 244t37.5 182.5t107.5 160t199 76.5q58 2 152 2t223 -2q258 -4 612 -12l-7 -274l-9 -63l-9 -46l-334 8q-384 0 -412.5 -15.5t-49.5 -53t-40.5 -132t-45.5 -243t-48 -249.5q-22 -100 -28 -148q-4 -33 -3 -53q1 -9 1 -15q2 -20 34.5 -63 t220.5 -43h521l-34 -138l-94 -278h-958h-20q-114 0 -182 62q-65 59 -66 124q1 64 46 230z" />
<glyph unicode="d" horiz-adv-x="1764" d="M-8 -13q144 316 178 486t78 346.5t76.5 406.5t78.5 562l-3 22h562q602 -22 654 -37.5t83 -49t48.5 -105.5t23.5 -178q1 -21 1 -46q0 -96 -18 -240q-24 -180 -84 -425t-78.5 -313t-49.5 -124.5t-76 -117t-103 -98t-143 -60t-1228 -29.5zM646 399q346 0 394.5 14t81 52.5 t63 166.5t58 251.5t30.5 242.5q1 32 1 61q0 76 -6 124q-8 66 -34.5 105t-114.5 46t-273 7q-16 -161 -25 -245t-20 -178t-39.5 -213t-50 -224t-65.5 -210z" />
<glyph unicode="e" horiz-adv-x="1783" d="M-15 -4l5 8q126 299 197.5 501.5t116.5 382.5t80.5 367t91.5 540h481l825 -1q-12 -241 -45 -375l-841 7q-25 -179 -50 -300l841 -7q-33 -158 -102 -367h-845q-97 -299 -133 -374l862 -7q-77 -187 -168 -375h-1316z" />
<glyph unicode="f" horiz-adv-x="1660" d="M-14 -11q71 165 97.5 239.5t86 277t94 382.5t57 367t56.5 533h476l852 -1q2 -62 2 -117q0 -152 -18 -251l-858 7q-13 -179 -31 -300l859 -7q-23 -158 -80 -367h-862q-90 -306 -110 -365.5t-147 -397.5h-474z" />
<glyph unicode="g" horiz-adv-x="1646" d="M-16 191q4 68 51 223.5t98 372t76.5 364.5t40.5 242.5t17 132.5t17.5 87.5t113.5 121.5t219 76q61 2 154.5 2t220.5 -2q254 -4 669 -19l-21 -266l-11 -62l-10 -46l-387 8q-82 3 -150 3q-292 0 -317 -49q-31 -60 -41.5 -154t-40 -242t-54.5 -248.5t-33 -147.5 q-6 -34 -6 -54q0 -8 1 -14q3 -20 9.5 -40.5t33 -42.5t85.5 -25.5t146 -6.5h7q81 0 101 73q21 76 30 111t-10 49.5t-148 15.5l83 343l131 3h178l190 -4l135 -4q-61 -374 -101 -483.5t-86 -276t-177 -199t-535.5 -32.5h-415h-70t-111 15.5t-68.5 61.5q-15 37 -15 88q0 12 1 25 z" />
<glyph unicode="h" horiz-adv-x="1834" d="M-8 -5q134 326 187 485.5t96.5 330t68 345t39 311t38.5 341.5h335l187 -1q-25 -249 -38 -370.5t-46 -318.5l420 -8q41 252 59 418q16 143 15 242v31l506 -1l-20 -265q-30 -303 -63.5 -496t-76 -360.5t-97.5 -323t-157 -368.5h-486q109 296 156 436.5t85 307.5l-421 7 q-45 -151 -95 -284t-191 -459h-493h-8zM1115 423l-23 -70q-1 1 23 71q23 70 23.5 70t-23.5 -71zM1699 685l22 88l-21 -87q-21 -87 -21.5 -87.5t20.5 86.5z" />
<glyph unicode="i" horiz-adv-x="853" d="M-3 -6l100 220q88 296 122.5 447.5t67 326t49 334t22.5 273.5q4 87 4 167v53l501 -15q-18 -319 -34 -505t-64.5 -417.5t-112.5 -428.5t-169 -455h-486z" />
<glyph unicode="j" horiz-adv-x="1619" d="M15 131q5 33 45 168t100 399l206 -3l224 3q-36 -164 -60 -246q-7 -23 -7 -39q0 -41 43 -41h5q66 4 143 4.5t115.5 16t79 90.5t71 207.5t60.5 311t46 330.5t25.5 266t24.5 205h493q0 -220 -32.5 -459t-78.5 -459t-117.5 -432.5t-104 -265.5t-90 -95t-130.5 -64.5 t-153.5 -30.5t-520.5 -8q-319 0 -343.5 32.5t-36.5 54.5t-7 55z" />
<glyph unicode="k" horiz-adv-x="1940" d="M-11 2q132 334 202.5 543t106.5 421.5t69 440.5t39 410l474 -15q-7 -281 -20.5 -425t-24.5 -220l-11 -76l635 728h533l-822 -1006q192 -265 231.5 -375.5t61 -206.5t47.5 -227h-494q-12 205 -68 326q-54 122 -94 186q-36 58 -36 59v-1l-76 91q-61 -220 -103.5 -338 t-126.5 -323h-520z" />
<glyph unicode="l" horiz-adv-x="1692" d="M-19 -12q159 403 210.5 574t97.5 387t64.5 410t26.5 319t8 141l497 -8q4 -82 4 -160q-1 -117 -9 -223q-14 -178 -44.5 -353t-73 -357.5t-94.5 -319.5l922 -7q-62 -182 -159 -388l-12 -7h-1419z" />
<glyph unicode="m" horiz-adv-x="2123" d="M-13 3q154 334 215 520t110.5 383.5t84 410t43.5 353t12 133.5h547l240 -440l379 439l505 1q0 -251 -43.5 -471t-64.5 -322.5t-78.5 -288.5t-116 -334.5t-175.5 -391.5h-456q181 433 227.5 619t95.5 518l-443 -407l-232 374q-75 -344 -140 -522.5t-152.5 -376 t-101.5 -205.5h-453l3 -7z" />
<glyph unicode="n" horiz-adv-x="1906" d="M1 3l75 171q76 171 150.5 387.5t121 436.5t79 402t36.5 296t12 114h399l381 -991q96 429 121 626.5t32 364.5h502q-63 -615 -169.5 -998.5t-139 -474.5t-146.5 -342l-381 1l-316 729q-124 -389 -156.5 -480t-109.5 -250h-487z" />
<glyph unicode="o" horiz-adv-x="1769" d="M8 140q3 54 11 69q130 364 165.5 485.5t67 273.5t59.5 395t43 306.5t79.5 102.5t180 43t440 4t482.5 -4q158 -5 224 -69q53 -52 52 -200q0 -36 -2 -80q-16 -216 -59.5 -451.5t-88.5 -403t-86 -292.5t-89.5 -180.5t-125 -99t-160.5 -43.5h-469h-517.5t-170.5 46 q-36 42 -36 91v7zM591 462q-4 -32 6.5 -59.5t53.5 -34.5q26 -4 87 -4q39 0 92 2q136 4 166.5 6.5t60 28.5t49.5 59.5t41 109.5t46 177.5t53 244.5q28 142 47 274q9 65 9 108t-10 63q-20 39 -74.5 41.5t-167.5 2.5t-153.5 -2.5t-65 -26.5t-33 -62t-32.5 -186t-43.5 -240 t-39 -165.5t-85.5 -295.5q-3 -9 -7 -41z" />
<glyph unicode="p" horiz-adv-x="1720" d="M5 -7q107 281 171.5 474.5t119 429t77.5 433t38 334.5q12 107 12 126q0 4 -1 3h901q342 0 405 -80q57 -74 57 -197v-20q-5 -136 -15.5 -238.5t-58 -248t-74 -208.5t-95.5 -121.5t-140 -80.5q-55 -17 -448 -17q-108 0 -240 1l-21 -58l-115 -335l-84 -197h-475h-14z M810 935q300 0 360 14t91 64t43 174q14 134 14 187q0 58 -42 82q-28 16 -173 16q-87 0 -217 -6l-4 -7q-15 -191 -45 -347q-27 -141 -27 -172v-5z" />
<glyph unicode="q" horiz-adv-x="1755" d="M66 60q-25 35 -25 92q0 63 32 156q60 174 105 318.5t79 334t48.5 349t23 277.5t98 167t249 49h482t408 -3.5t148.5 -79.5q55 -65 55 -181q0 -19 -1 -39q-11 -145 -44.5 -384t-140 -495t-242.5 -349l28 -120l-4 -164h-338l7 66q-306 -66 -506 -69q-99 -1 -175 -1t-129 1 q-104 3 -158 75zM593 428q-1 -8 -1 -16q0 -26 8 -49q11 -30 57.5 -30t167 30t210.5 49l18 251l151 48q10 132 36 285.5t42 294.5q8 64 8 107q0 53 -11 76q-20 42 -75 44.5t-168 2.5t-153.5 -2.5t-64.5 -28t-33 -67t-30 -200t-39 -257.5t-36.5 -178t-79.5 -316q-4 -10 -7 -44 z" />
<glyph unicode="r" horiz-adv-x="1785" d="M-31 -14q168 377 246 589t134.5 419.5t94 427t48.5 396.5h680q528 -14 600 -92q60 -64 59 -162q0 -20 -2 -42q-15 -127 -46.5 -281t-51.5 -209.5t-79.5 -141.5t-307.5 -186q145 -301 199 -725h-530q-31 215 -83.5 318.5t-196.5 255.5q-36 -117 -61 -176.5t-165 -390.5 h-530h-8zM825 973q218 0 289 17t106.5 65t47.5 87q14 38 46 162q11 40 10 70q0 61 -45 77q-52 19 -222 19q-50 0 -109 -2q-28 -179 -68.5 -320t-54.5 -175z" />
<glyph unicode="s" horiz-adv-x="1783" d="M51 398l74 169h455l-43 -128q4 -71 21 -89q12 -13 180 -13q63 0 149 2q169 19 210 183q14 56 14 99q1 81 -51 109q-64 35 -197 35q-30 0 -64 -2q-65 -4 -127 -4q-110 0 -210 12q-156 19 -212 87q-31 38 -30 111q0 59 20 142q44 185 70 306.5t45.5 189.5t85 121t172 67.5 t387.5 14.5t360 -7q251 0 336 -64q78 -59 78 -159v-18q-8 -114 -32 -249h-461q14 47 14 82q0 97 -108 97h-259.5t-126.5 -57t-35 -148q-12 -52 -12 -86q0 -27 7 -43q16 -38 67 -60q35 -16 130 -16q44 0 100 4q35 2 69 2q135 0 239 -34q130 -42 188 -180q26 -61 27 -144 q0 -102 -40 -237q-72 -244 -150 -339.5t-347 -159.5h-578q-27 -1 -52 -1q-396 0 -395 245q0 70 32 160z" />
<glyph unicode="t" horiz-adv-x="1697" d="M236 1399l24 268l1 127h76h1435q-19 -254 -28 -325l-9 -71h-497q-22 -276 -55.5 -451.5t-77.5 -343.5t-109.5 -354.5t-95.5 -252.5h-499l167 506q166 561 166 861q0 19 -1 36h-497z" />
<glyph unicode="u" horiz-adv-x="1742" d="M50 281q72 171 144 401.5t116 474.5t87 640h507q-12 -222 -47 -404t-75 -364.5t-110 -383.5q-53 -151 -53 -214q0 -21 6 -32q21 -42 80 -42q5 1 9 1q66 4 142.5 3.5t127.5 14.5t80 68t77.5 204.5t94.5 353t75.5 388t31.5 406.5h466q5 -74 5 -144q0 -96 -10 -186 q-16 -156 -50 -334.5t-99.5 -406.5t-152 -413.5t-211.5 -250.5t-391 -65t-518 -4h-31q-227 0 -297 57q-39 31 -39 92q0 57 35 140z" />
<glyph unicode="v" horiz-adv-x="1607" d="M131 -4q74 380 93 554.5t46.5 372t30.5 425.5t3 338t-3 103l-1 15l478 -1q6 -109 6 -235q0 -136 -7 -292q-13 -300 -123 -839q255 378 332.5 561t136.5 365.5t128 440.5h492q-54 -205 -118 -399t-181.5 -456t-319.5 -535t-365 -418h-628z" />
<glyph unicode="w" horiz-adv-x="2104" d="M-17 0q122 245 187.5 409.5t116 322.5t100.5 347.5t84 338.5t73 392h488q-69 -309 -105.5 -485t-199.5 -687l404 368l228 -390q127 434 165 616.5t92 569.5h496l-4 7l7 -15q-30 -326 -85.5 -571.5t-101 -392t-129.5 -359t-212 -476.5l-484 -1l-247 316l-418 -317z" />
<glyph unicode="x" horiz-adv-x="1846" d="M-5 -9l430 614l199 247l-119 499q-85 364 -90 417l11 23h438l139 -503l370 511h494l-672 -914l245 -894h-467l-123 453l-367 -453h-488z" />
<glyph unicode="y" horiz-adv-x="1540" d="M160 1804h449q86 -153 129 -216.5t118.5 -198t160.5 -287.5q37 171 155 695h457q-75 -433 -129 -672.5t-145 -531.5t-221 -604h-486l10 7l213 594q-110 191 -181.5 286.5t-234.5 376.5t-295 551z" />
<glyph unicode="z" horiz-adv-x="1770" d="M-2 -9q53 152 121 365l1090 1041h-896q-2 40 -2 92q0 123 13 310h1450q0 -122 4 -387l-1065 -1025l872 -1l-17 -57q-18 -57 -127 -338h-1443z" />
<glyph unicode="{" horiz-adv-x="1228" d="M-1 -8q56 139 101 229h303q128 472 174.5 676t73.5 404.5t38 269.5h-352q21 125 26 215h1040q-9 -172 -12.5 -190t-7.5 -26h-364q-28 -290 -55.5 -444.5t-64.5 -322t-159 -583.5h368l-73 -228h-1036z" />
<glyph unicode="|" horiz-adv-x="2648" d="M139 -8q28 143 73 233h303q156 468 202.5 672t80.5 409.5t45 246.5h-352q19 143 12 233h1040q5 -190 1.5 -208t-7.5 -26h-364q-42 -272 -69.5 -426.5t-64.5 -322t-187 -579.5h368l-45 -232h-1036zM749 -8q28 143 73 233h303q156 468 202.5 672t80.5 409.5t45 246.5h-352 q19 143 12 233h1040q5 -190 1.5 -208t-7.5 -26h-364q-42 -272 -69.5 -426.5t-64.5 -322t-187 -579.5h368l-45 -232h-1036zM1349 -8q28 143 73 233h303q156 468 202.5 672t80.5 409.5t45 246.5h-352q19 143 12 233h1040q5 -190 1.5 -208t-7.5 -26h-364q-42 -272 -69.5 -426.5 t-64.5 -322t-187 -579.5h368l-45 -232h-1036z" />
<glyph unicode="}" horiz-adv-x="1896" d="M-9 -8q33 138 78 228h303q151 473 197.5 677t75.5 412t40 249h-352q29 138 22 228h1040q-5 -185 -8.5 -203t-7.5 -26h-364q-32 -277 -59.5 -431.5t-64.5 -322t-182 -584.5h368l-50 -227h-1036zM641 -8q33 138 78 228h303q151 473 197.5 677t75.5 412t40 249h-352 q29 138 22 228h1040q-5 -185 -8.5 -203t-7.5 -26h-364q-32 -277 -59.5 -431.5t-64.5 -322t-182 -584.5h368l-50 -227h-1036z" />
<glyph unicode="~" horiz-adv-x="1037" />
<glyph unicode="&#xa1;" horiz-adv-x="892" d="M-4 1803l443 1l117 -339l-462 2zM162 1308h444q96 -212 143 -345t100.5 -307.5t83.5 -357t45 -303.5l-449 -1q-42 206 -73 369t-84 322.5t-96.5 287t-113.5 335.5z" />
<glyph unicode="&#xa2;" />
<glyph unicode="&#xa3;" horiz-adv-x="1589" d="M-13 -6q81 281 129 438t83 225.5t473.5 269.5t521 239t119.5 201.5t-106 166.5t-262 -0.5t-195.5 -51.5t-100.5 -265h-363q55 380 200.5 475.5t325.5 98.5t104 3q529 7 606 -14.5t126.5 -76t23 -350.5t-172 -372t-517 -231.5t-413 -217t-80.5 -228.5l935 -2l-73 -308 h-1364z" />
<glyph unicode="&#xa4;" horiz-adv-x="1408" d="M35 459l302 -1q14 -181 271.5 -188t321 120.5t65.5 205.5t-16.5 132.5t-101.5 86.5t-314 47l22 202q370 46 471.5 213.5t45.5 227.5t-272.5 53t-227.5 -184l-337 -2l30 142q38 315 520 294q481 -7 565.5 -83.5t94 -230.5t-42 -263t-145.5 -181.5t-101 -72.5 q185 -178 150.5 -376.5t-85.5 -305.5t-161.5 -196t-251.5 -103.5t-412 -7.5t-341.5 199.5t-49.5 271.5z" />
<glyph unicode="&#xa5;" horiz-adv-x="1460" />
<glyph unicode="&#xa6;" horiz-adv-x="569" />
<glyph unicode="&#xa7;" />
<glyph unicode="&#xa8;" horiz-adv-x="682" />
<glyph unicode="&#xa9;" horiz-adv-x="1509" />
<glyph unicode="&#xaa;" horiz-adv-x="1124" />
<glyph unicode="&#xab;" horiz-adv-x="561" />
<glyph unicode="&#xac;" horiz-adv-x="1686" />
<glyph unicode="&#xad;" horiz-adv-x="1400" d="M285 825h617h395l72 -314h-382h-644z" />
<glyph unicode="&#xae;" horiz-adv-x="1509" />
<glyph unicode="&#xaf;" horiz-adv-x="1366" />
<glyph unicode="&#xb0;" horiz-adv-x="762" d="M44 1530q-19 110 46 186.5t180 76.5q114 0 205 -76.5t110 -186.5t-46 -186.5t-179 -76.5t-205.5 76t-110.5 187zM44 1530q-19 110 46 186.5t180 76.5q114 0 205 -76.5t110 -186.5t-46 -186.5t-179 -76.5t-205.5 76t-110.5 187zM44 1530q-19 110 46 186.5t180 76.5 q114 0 205 -76.5t110 -186.5t-46 -186.5t-179 -76.5t-205.5 76t-110.5 187zM44 1530q-19 110 46 186.5t180 76.5q114 0 205 -76.5t110 -186.5t-46 -186.5t-179 -76.5t-205.5 76t-110.5 187zM44 1530q-19 110 46 186.5t180 76.5q114 0 205 -76.5t110 -186.5t-46 -186.5 t-179 -76.5t-205.5 76t-110.5 187zM44 1530q-19 110 46 186.5t180 76.5q114 0 205 -76.5t110 -186.5t-46 -186.5t-179 -76.5t-205.5 76t-110.5 187zM44 1530q-19 110 46 186.5t180 76.5q114 0 205 -76.5t110 -186.5t-46 -186.5t-179 -76.5t-205.5 76t-110.5 187zM44 1530 q-19 110 46 186.5t180 76.5q114 0 205 -76.5t110 -186.5t-46 -186.5t-179 -76.5t-205.5 76t-110.5 187zM44 1530q-19 110 46 186.5t180 76.5q114 0 205 -76.5t110 -186.5t-46 -186.5t-179 -76.5t-205.5 76t-110.5 187zM44 1530q-19 110 46 186.5t180 76.5q114 0 205 -76.5 t110 -186.5t-46 -186.5t-179 -76.5t-205.5 76t-110.5 187zM44 1530q-19 110 46 186.5t180 76.5q114 0 205 -76.5t110 -186.5t-46 -186.5t-179 -76.5t-205.5 76t-110.5 187zM44 1530q-19 110 46 186.5t180 76.5q114 0 205 -76.5t110 -186.5t-46 -186.5t-179 -76.5t-205.5 76 t-110.5 187zM155 1530q12 -68 66 -113t121 -45q69 0 106 46t26 112q-12 67 -65 112.5t-122 45.5q-68 0 -105.5 -45.5t-26.5 -112.5zM155 1530q12 -68 66 -113t121 -45q69 0 106 46t26 112q-12 67 -65 112.5t-122 45.5q-68 0 -105.5 -45.5t-26.5 -112.5zM155 1530 q12 -68 66 -113t121 -45q69 0 106 46t26 112q-12 67 -65 112.5t-122 45.5q-68 0 -105.5 -45.5t-26.5 -112.5zM155 1530q12 -68 66 -113t121 -45q69 0 106 46t26 112q-12 67 -65 112.5t-122 45.5q-68 0 -105.5 -45.5t-26.5 -112.5zM155 1530q12 -68 66 -113t121 -45 q69 0 106 46t26 112q-12 67 -65 112.5t-122 45.5q-68 0 -105.5 -45.5t-26.5 -112.5zM155 1530q12 -68 66 -113t121 -45q69 0 106 46t26 112q-12 67 -65 112.5t-122 45.5q-68 0 -105.5 -45.5t-26.5 -112.5zM155 1530q12 -68 66 -113t121 -45q69 0 106 46t26 112 q-12 67 -65 112.5t-122 45.5q-68 0 -105.5 -45.5t-26.5 -112.5zM155 1530q12 -68 66 -113t121 -45q69 0 106 46t26 112q-12 67 -65 112.5t-122 45.5q-68 0 -105.5 -45.5t-26.5 -112.5zM155 1530q12 -68 66 -113t121 -45q69 0 106 46t26 112q-12 67 -65 112.5t-122 45.5 q-68 0 -105.5 -45.5t-26.5 -112.5zM155 1530q12 -68 66 -113t121 -45q69 0 106 46t26 112q-12 67 -65 112.5t-122 45.5q-68 0 -105.5 -45.5t-26.5 -112.5zM155 1530q12 -68 66 -113t121 -45q69 0 106 46t26 112q-12 67 -65 112.5t-122 45.5q-68 0 -105.5 -45.5t-26.5 -112.5 zM155 1530q12 -68 66 -113t121 -45q69 0 106 46t26 112q-12 67 -65 112.5t-122 45.5q-68 0 -105.5 -45.5t-26.5 -112.5z" />
<glyph unicode="&#xb1;" horiz-adv-x="1593" />
<glyph unicode="&#xb2;" horiz-adv-x="569" />
<glyph unicode="&#xb3;" horiz-adv-x="682" />
<glyph unicode="&#xb4;" horiz-adv-x="682" />
<glyph unicode="&#xb5;" horiz-adv-x="1124" />
<glyph unicode="&#xb6;" horiz-adv-x="1100" />
<glyph unicode="&#xb7;" horiz-adv-x="2048" />
<glyph unicode="&#xb8;" horiz-adv-x="1366" />
<glyph unicode="&#xb9;" horiz-adv-x="1479" />
<glyph unicode="&#xba;" horiz-adv-x="1124" />
<glyph unicode="&#xbb;" horiz-adv-x="758" />
<glyph unicode="&#xbc;" horiz-adv-x="682" />
<glyph unicode="&#xbd;" horiz-adv-x="682" />
<glyph unicode="&#xbe;" horiz-adv-x="682" />
<glyph unicode="&#xbf;" horiz-adv-x="1458" d="M31.5 1037.5q4.5 77.5 25 108.5t142.5 71l768 -6q32 -126 97 -362h-589q92 -207 177 -466h849l63 -387l-812 -1q-219 22 -308 65t-124 104t-85 209t-129 367.5t-74.5 297zM465 1805h362l96 -356l-345 2z" />
<glyph unicode="&#xc0;" horiz-adv-x="1821" />
<glyph unicode="&#xc1;" horiz-adv-x="1012" />
<glyph unicode="&#xc2;" horiz-adv-x="455" />
<glyph unicode="&#xc3;" horiz-adv-x="1251" />
<glyph unicode="&#xc4;" horiz-adv-x="1618" />
<glyph unicode="&#xc5;" horiz-adv-x="1450" />
<glyph unicode="&#xc6;" horiz-adv-x="1124" />
<glyph unicode="&#xc7;" horiz-adv-x="1479" />
<glyph unicode="&#xc8;" horiz-adv-x="1366" />
<glyph unicode="&#xc9;" horiz-adv-x="1489" d="M101 1604h412l739 -1q111 -221 141 -340l-752 6q59 -159 90 -267l751 -6q41 -141 73 -327h-752q46 -266 48 -333l769 -6q15 -167 18 -334h-1171v7q-20 266 -46.5 446.5t-66 340.5t-92 326.5t-161.5 487.5zM101 1604h412l739 -1q111 -221 141 -340l-752 6q59 -159 90 -267 l751 -6q41 -141 73 -327h-752q46 -266 48 -333l769 -6q15 -167 18 -334h-1171v7q-20 266 -46.5 446.5t-66 340.5t-92 326.5t-161.5 487.5zM101 1604h412l739 -1q111 -221 141 -340l-752 6q59 -159 90 -267l751 -6q41 -141 73 -327h-752q46 -266 48 -333l769 -6 q15 -167 18 -334h-1171v7q-20 266 -46.5 446.5t-66 340.5t-92 326.5t-161.5 487.5zM490 1487q51 152 76.5 237.5t42.5 85.5l302 2q-9 -132 -90 -323l-125 -1z" />
<glyph unicode="&#xca;" horiz-adv-x="1124" />
<glyph unicode="&#xcb;" horiz-adv-x="1024" />
<glyph unicode="&#xcc;" horiz-adv-x="682" />
<glyph unicode="&#xcd;" horiz-adv-x="342" />
<glyph unicode="&#xce;" />
<glyph unicode="&#xcf;" horiz-adv-x="682" />
<glyph unicode="&#xd0;" horiz-adv-x="569" />
<glyph unicode="&#xd1;" horiz-adv-x="1479" />
<glyph unicode="&#xd2;" />
<glyph unicode="&#xd3;" horiz-adv-x="1024" />
<glyph unicode="&#xd4;" horiz-adv-x="1024" />
<glyph unicode="&#xd5;" horiz-adv-x="1251" />
<glyph unicode="&#xd6;" horiz-adv-x="1593" />
<glyph unicode="&#xd7;" horiz-adv-x="1479" />
<glyph unicode="&#xd8;" horiz-adv-x="2048" />
<glyph unicode="&#xd9;" horiz-adv-x="682" />
<glyph unicode="&#xda;" horiz-adv-x="570" />
<glyph unicode="&#xdb;" horiz-adv-x="455" />
<glyph unicode="&#xdc;" horiz-adv-x="1479" />
<glyph unicode="&#xdd;" horiz-adv-x="569" />
<glyph unicode="&#xde;" horiz-adv-x="1593" />
<glyph unicode="&#xdf;" horiz-adv-x="1251" />
<glyph unicode="&#xe0;" horiz-adv-x="1479" d="M30 -3q86 218 130.5 367.5t80.5 295t56 298t44.5 305.5t127 239t172.5 89.5t273.5 3t580.5 -20.5q21 -99 30 -205t-1.5 -265t-44.5 -338t-78.5 -341.5t-141.5 -427.5h-396l96 292l33 140l-395 6l-64 -213l-96 -225h-407zM30 -3q86 218 130.5 367.5t80.5 295t56 298 t44.5 305.5t127 239t172.5 89.5t273.5 3t580.5 -20.5q21 -99 30 -205t-1.5 -265t-44.5 -338t-78.5 -341.5t-141.5 -427.5h-396l96 292l33 140l-395 6l-64 -213l-96 -225h-407zM30 -3q86 218 130.5 367.5t80.5 295t56 298t44.5 305.5t127 239t172.5 89.5t273.5 3t580.5 -20.5 q21 -99 30 -205t-1.5 -265t-44.5 -338t-78.5 -341.5t-141.5 -427.5h-396l96 292l33 140l-395 6l-64 -213l-96 -225h-407zM648 765l417 -6q50 199 56.5 274.5t25.5 261.5q-303 20 -341.5 -19.5t-62 -118.5t-91.5 -385zM648 765l417 -6q50 199 56.5 274.5t25.5 261.5 q-303 20 -341.5 -19.5t-62 -118.5t-91.5 -385zM648 765l417 -6q50 199 56.5 274.5t25.5 261.5q-303 20 -341.5 -19.5t-62 -118.5t-91.5 -385zM781 1810l300 2q66 -132 94 -323l-125 -1l-205 -1q-35 152 -58.5 237.5t-5.5 85.5z" />
<glyph unicode="&#xe1;" />
<glyph unicode="&#xe2;" />
<glyph unicode="&#xe3;" />
<glyph unicode="&#xe4;" />
<glyph unicode="&#xe5;" />
<glyph unicode="&#xe6;" />
<glyph unicode="&#xe7;" horiz-adv-x="1513" d="M31.5 185q2.5 68 45 224.5t86.5 373.5t66 366t34 244t37.5 182.5t107.5 160t199 76.5t375 0t612 -12l-7 -274l-9 -63l-9 -46l-334 8q-384 0 -412.5 -15.5t-49.5 -53t-40.5 -132t-45.5 -243t-48 -249.5t-27.5 -148.5t-3 -68t35 -63t220.5 -42.5h521l-34 -138l-94 -278 h-958h-20q-115 0 -182.5 61.5t-65 129.5zM468 -274q43 152 63.5 237.5t37.5 85.5l302 2q-2 -132 -72 -323l-125 -1z" />
<glyph unicode="&#xe8;" horiz-adv-x="1451" d="M2 -7l4 7q104 264 162.5 443t94 338t62.5 324.5t68 477.5h425l729 -1q-5 -213 -31 -331l-743 6q-18 -158 -37 -265l743 -6q-25 -140 -81 -325h-747q-79 -264 -109 -330l762 -7q-63 -165 -139 -331h-1163zM2 -7l4 7q104 264 162.5 443t94 338t62.5 324.5t68 477.5h425 l729 -1q-5 -213 -31 -331l-743 6q-18 -158 -37 -265l743 -6q-25 -140 -81 -325h-747q-79 -264 -109 -330l762 -7q-63 -165 -139 -331h-1163zM2 -7l4 7q104 264 162.5 443t94 338t62.5 324.5t68 477.5h425l729 -1q-5 -213 -31 -331l-743 6q-18 -158 -37 -265l743 -6 q-25 -140 -81 -325h-747q-79 -264 -109 -330l762 -7q-63 -165 -139 -331h-1163zM757 1800l300 2q86 -132 143 -323l-124 -1l-205 -1q-59 152 -95.5 237.5t-18.5 85.5z" />
<glyph unicode="&#xe9;" horiz-adv-x="1455" d="M-5 3l4 7q104 264 162.5 443t94 338t62.5 324.5t68 477.5h425l729 -1q-5 -213 -31 -331l-743 6q-18 -158 -37 -265l743 -6q-25 -140 -81 -325h-747q-79 -264 -109 -330l762 -7q-63 -165 -139 -331h-1163zM-5 3l4 7q104 264 162.5 443t94 338t62.5 324.5t68 477.5h425 l729 -1q-5 -213 -31 -331l-743 6q-18 -158 -37 -265l743 -6q-25 -140 -81 -325h-747q-79 -264 -109 -330l762 -7q-63 -165 -139 -331h-1163zM-5 3l4 7q104 264 162.5 443t94 338t62.5 324.5t68 477.5h425l729 -1q-5 -213 -31 -331l-743 6q-18 -158 -37 -265l743 -6 q-25 -140 -81 -325h-747q-79 -264 -109 -330l762 -7q-63 -165 -139 -331h-1163zM779 1487q51 152 76.5 237.5t42.5 85.5l302 2q-9 -132 -90 -323l-125 -1z" />
<glyph unicode="&#xea;" />
<glyph unicode="&#xeb;" d="M30 1809q118 0 231.5 4t438 4t774.5 -8l64 -129q174 -433 270 -780.5t169 -904.5l-171 -1q-938 0 -1359 5q-10 193 -9 208q-45 364 -68 485.5t-64 273.5t-121.5 399.5t-154.5 443.5z" />
<glyph unicode="&#xec;" horiz-adv-x="569" />
<glyph unicode="&#xed;" horiz-adv-x="569" />
<glyph unicode="&#xee;" horiz-adv-x="569" />
<glyph unicode="&#xef;" horiz-adv-x="569" />
<glyph unicode="&#xf0;" horiz-adv-x="569" />
<glyph unicode="&#xf1;" />
<glyph unicode="&#xf2;" />
<glyph unicode="&#xf3;" />
<glyph unicode="&#xf4;" />
<glyph unicode="&#xf5;" />
<glyph unicode="&#xf6;" />
<glyph unicode="&#xf7;" horiz-adv-x="2048" />
<glyph unicode="&#xf8;" horiz-adv-x="1180" />
<glyph unicode="&#xf9;" horiz-adv-x="1489" d="M76.5 262.5q63.5 151.5 128 356t103.5 421.5t77 568h450q-11 -197 -42 -358.5t-66.5 -323.5t-97.5 -340.5t-41.5 -218.5t79.5 -37t126.5 3t112.5 13.5t71 60.5t69 181.5t84 313.5t67 344.5t28 360.5h414q10 -155 -4.5 -293t-44.5 -296.5t-88.5 -361t-135 -367 t-187.5 -222.5t-347.5 -58t-460.5 -3.5t-291 51t-3.5 206zM76.5 262.5q63.5 151.5 128 356t103.5 421.5t77 568h450q-11 -197 -42 -358.5t-66.5 -323.5t-97.5 -340.5t-41.5 -218.5t79.5 -37t126.5 3t112.5 13.5t71 60.5t69 181.5t84 313.5t67 344.5t28 360.5h414 q10 -155 -4.5 -293t-44.5 -296.5t-88.5 -361t-135 -367t-187.5 -222.5t-347.5 -58t-460.5 -3.5t-291 51t-3.5 206zM76.5 262.5q63.5 151.5 128 356t103.5 421.5t77 568h450q-11 -197 -42 -358.5t-66.5 -323.5t-97.5 -340.5t-41.5 -218.5t79.5 -37t126.5 3t112.5 13.5 t71 60.5t69 181.5t84 313.5t67 344.5t28 360.5h414q10 -155 -4.5 -293t-44.5 -296.5t-88.5 -361t-135 -367t-187.5 -222.5t-347.5 -58t-460.5 -3.5t-291 51t-3.5 206zM872 1810l214 2q47 -118 66 -288l-88 -1l-146 -1q-25 136 -41.5 212t-4.5 76z" />
<glyph unicode="&#xfa;" />
<glyph unicode="&#xfb;" />
<glyph unicode="&#xfc;" />
<glyph unicode="&#xfd;" horiz-adv-x="1593" />
<glyph unicode="&#xfe;" horiz-adv-x="1593" />
<glyph unicode="&#xff;" horiz-adv-x="1366" />
<glyph unicode="&#x152;" horiz-adv-x="682" />
<glyph unicode="&#x153;" horiz-adv-x="1196" />
<glyph unicode="&#x178;" horiz-adv-x="1366" />
<glyph unicode="&#x2c6;" horiz-adv-x="2048" />
<glyph unicode="&#x2dc;" horiz-adv-x="1366" />
<glyph unicode="&#x2000;" horiz-adv-x="913" />
<glyph unicode="&#x2001;" horiz-adv-x="1826" />
<glyph unicode="&#x2002;" horiz-adv-x="913" />
<glyph unicode="&#x2003;" horiz-adv-x="1826" />
<glyph unicode="&#x2004;" horiz-adv-x="608" />
<glyph unicode="&#x2005;" horiz-adv-x="456" />
<glyph unicode="&#x2006;" horiz-adv-x="304" />
<glyph unicode="&#x2007;" horiz-adv-x="304" />
<glyph unicode="&#x2008;" horiz-adv-x="228" />
<glyph unicode="&#x2009;" horiz-adv-x="365" />
<glyph unicode="&#x200a;" horiz-adv-x="101" />
<glyph unicode="&#x2010;" horiz-adv-x="1400" d="M285 825h617h395l72 -314h-382h-644z" />
<glyph unicode="&#x2011;" horiz-adv-x="1400" d="M285 825h617h395l72 -314h-382h-644z" />
<glyph unicode="&#x2012;" horiz-adv-x="1400" d="M285 825h617h395l72 -314h-382h-644z" />
<glyph unicode="&#x2013;" horiz-adv-x="1124" />
<glyph unicode="&#x2014;" />
<glyph unicode="&#x2018;" />
<glyph unicode="&#x2019;" />
<glyph unicode="&#x201a;" horiz-adv-x="682" />
<glyph unicode="&#x201c;" horiz-adv-x="1124" />
<glyph unicode="&#x201d;" horiz-adv-x="1253" />
<glyph unicode="&#x201e;" horiz-adv-x="682" />
<glyph unicode="&#x2022;" horiz-adv-x="717" />
<glyph unicode="&#x2026;" horiz-adv-x="748" />
<glyph unicode="&#x202f;" horiz-adv-x="365" />
<glyph unicode="&#x2039;" horiz-adv-x="2048" />
<glyph unicode="&#x203a;" horiz-adv-x="1933" />
<glyph unicode="&#x205f;" horiz-adv-x="456" />
<glyph unicode="&#x2122;" horiz-adv-x="2048" />
<glyph unicode="&#x25fc;" horiz-adv-x="1800" d="M0 0v1800h1800v-1800h-1800z" />
<glyph unicode="&#xfb01;" horiz-adv-x="1196" />
<glyph unicode="&#xfb02;" horiz-adv-x="1196" />
</font>
</defs>
</svg>
